<?xml version="1.0" encoding="utf-8"?>
<!-- Generator: Adobe Illustrator 16.0.0, SVG Export Plug-In . SVG Version: 6.00 Build 0)  -->
<!DOCTYPE svg PUBLIC "-//W3C//DTD SVG 1.1//EN" "http://www.w3.org/Graphics/SVG/1.1/DTD/svg11.dtd">
<svg version="1.1" id="Layer_1" focusable="false" xmlns="http://www.w3.org/2000/svg" xmlns:xlink="http://www.w3.org/1999/xlink"
	 x="0px" y="0px" width="16px" height="16px" viewBox="0 0 16 16" enable-background="new 0 0 16 16" xml:space="preserve">
<path fill="#FFFFFF" d="M14.5,0.75v14.5c0,0.42-0.33,0.75-0.75,0.75H12c-0.44,0-0.78-0.38-0.75-0.81l0.47-5.79
	C6.83,5.58,11.17,0,13.75,0C14.17,0,14.5,0.34,14.5,0.75z"/>
<path fill="#FFFFFF" d="M6.35,7.77l0.4,7.44C6.77,15.64,6.43,16,6,16H4c-0.43,0-0.77-0.36-0.75-0.79l0.4-7.44
	C2.37,7.3,1.5,6.13,1.5,4.5c0-1.08,0.48-3.88,0.5-4.02c0.1-0.64,1.42-0.65,1.5,0.03v4.41c0.04,0.11,0.47,0.1,0.5,0
	c0.04-0.79,0.25-4.35,0.25-4.43c0.1-0.65,1.4-0.65,1.5,0c0,0.09,0.2,3.64,0.25,4.43c0.02,0.1,0.46,0.11,0.5,0V0.51
	C6.58-0.17,7.9-0.16,8,0.48C8.02,0.62,8.5,3.43,8.5,4.5C8.5,6.13,7.63,7.3,6.35,7.77z"/>
</svg>
