<?xml version="1.0" encoding="utf-8"?>
<!-- Generator: Adobe Illustrator 16.0.0, SVG Export Plug-In . SVG Version: 6.00 Build 0)  -->
<!DOCTYPE svg PUBLIC "-//W3C//DTD SVG 1.1//EN" "http://www.w3.org/Graphics/SVG/1.1/DTD/svg11.dtd">
<svg version="1.1" id="Layer_1" focusable="false" xmlns="http://www.w3.org/2000/svg" xmlns:xlink="http://www.w3.org/1999/xlink"
	 x="0px" y="0px" width="16px" height="16px" viewBox="0 0 16 16" enable-background="new 0 0 16 16" xml:space="preserve">
<path fill="#FFFFFF" d="M12.2,6.4H8.4v1.4c0,0.993-0.808,1.8-1.8,1.8c-0.993,0-1.8-0.807-1.8-1.8V4.76L3.178,5.735
	C2.695,6.022,2.4,6.545,2.4,7.105v1.183l-2,1.155c-0.382,0.22-0.515,0.71-0.292,1.093l2,3.465c0.22,0.383,0.71,0.513,1.093,0.293
	L5.785,12.8H9.2c0.882,0,1.6-0.718,1.6-1.6h0.4c0.442,0,0.8-0.358,0.8-0.8V8.8h0.2c0.333,0,0.6-0.267,0.6-0.6V7
	C12.8,6.667,12.533,6.4,12.2,6.4z M15.893,5.465l-2-3.465c-0.221-0.382-0.71-0.513-1.093-0.292L10.215,3.2H7.66
	c-0.3,0-0.593,0.085-0.848,0.242L5.975,3.965C5.74,4.11,5.6,4.368,5.6,4.643V7.8c0,0.553,0.447,1,1,1c0.552,0,1-0.447,1-1V5.6h4.6
	C12.973,5.6,13.6,6.228,13.6,7v0.712l2-1.155C15.982,6.335,16.112,5.848,15.893,5.465z"/>
</svg>
